<svg width="20" height="20" viewBox="0 0 20 20" fill="none" xmlns="http://www.w3.org/2000/svg">
<path fill-rule="evenodd" clip-rule="evenodd" d="M5.25 5.73695e-07L18.375 0C18.6071 0 18.8296 0.0921872 18.9937 0.256282C19.1578 0.420376 19.25 0.642936 19.25 0.875V14C19.25 14.4832 18.8582 14.875 18.375 14.875C17.8918 14.875 17.5 14.4832 17.5 14V2.98744L1.49372 18.9937C1.15201 19.3354 0.59799 19.3354 0.256282 18.9937C-0.0854272 18.652 -0.0854272 18.098 0.256282 17.7563L16.2626 1.75L5.25 1.75C4.76675 1.75 4.375 1.35825 4.375 0.875C4.375 0.391751 4.76675 5.73695e-07 5.25 5.73695e-07Z" fill="#E7BEB1"/>
</svg>
