<svg width="32" height="20" viewBox="0 0 32 20" fill="none" xmlns="http://www.w3.org/2000/svg">
<path d="M12.6455 9.07925C12.6455 9.07925 15.6096 8.85403 15.6096 5.30733C15.6096 1.76356 13.5993 0.0166468 10.5265 0.0166468L0 0V19.5842H10.7713C10.7713 19.5842 16.157 19.7546 16.157 13.709C16.157 13.709 16.5526 9.07925 12.6455 9.07925ZM3.91685 2.93764H9.30251C9.30251 2.93764 11.1454 2.96799 11.1454 5.35727C11.1454 7.83369 9.30251 7.83369 9.30251 7.83369H3.91685V2.93764ZM9.79212 16.6466H3.91685V10.7713H9.79212C9.79212 10.7713 12.7298 10.8017 12.7298 13.709C12.7298 16.6162 10.2151 16.6466 9.79212 16.6466Z" fill="#D48E77"/>
<path d="M24.481 4.89624C17.1242 4.89624 17.1369 12.2403 17.1369 12.2403C17.1369 12.2403 16.6473 19.5844 24.481 19.5844C24.481 19.5844 31.3355 19.5844 31.3355 13.7091H27.4186C27.4186 13.7091 27.4186 16.6468 24.481 16.6468C24.481 16.6468 21.5434 16.6468 21.5434 12.7299C21.5434 12.7299 29.3771 12.7299 31.3355 12.7299C31.3355 10.7715 31.3355 4.89624 24.481 4.89624ZM21.5434 10.7715C21.5434 10.7715 21.4787 7.83388 24.481 7.83388C27.4823 7.83388 27.4186 10.7715 27.4186 10.7715H21.5434Z" fill="#D48E77"/>
<path d="M28.3972 1.9585H20.5635V3.91692H28.3972V1.9585Z" fill="#D48E77"/>
</svg>
