<svg width="34" height="34" viewBox="0 0 34 34" fill="none" xmlns="http://www.w3.org/2000/svg">
<path d="M2.83301 9.20837C2.83301 5.68756 5.68719 2.83337 9.20801 2.83337C12.7288 2.83337 15.583 5.68756 15.583 9.20837V13.4584C15.583 13.9524 15.583 14.1994 15.5287 14.4021C15.3813 14.9521 14.9517 15.3817 14.4018 15.5291C14.1991 15.5834 13.9521 15.5834 13.458 15.5834H9.20801C5.68719 15.5834 2.83301 12.7292 2.83301 9.20837Z" fill="#CE7D63"/>
<path d="M18.4163 20.5417C18.4163 20.0477 18.4163 19.8006 18.4706 19.598C18.618 19.048 19.0476 18.6184 19.5976 18.471C19.8003 18.4167 20.0473 18.4167 20.5413 18.4167H24.7913C28.3122 18.4167 31.1663 21.2709 31.1663 24.7917C31.1663 28.3125 28.3122 31.1667 24.7913 31.1667C21.2705 31.1667 18.4163 28.3125 18.4163 24.7917V20.5417Z" fill="#CE7D63"/>
<path d="M2.83301 24.7917C2.83301 21.2709 5.68719 18.4167 9.20801 18.4167H13.033C13.9256 18.4167 14.3719 18.4167 14.7128 18.5904C15.0127 18.7432 15.2565 18.987 15.4093 19.2869C15.583 19.6278 15.583 20.0741 15.583 20.9667V24.7917C15.583 28.3125 12.7288 31.1667 9.20801 31.1667C5.68719 31.1667 2.83301 28.3125 2.83301 24.7917Z" fill="#CE7D63"/>
<path d="M18.4163 9.20837C18.4163 5.68756 21.2705 2.83337 24.7913 2.83337C28.3122 2.83337 31.1663 5.68756 31.1663 9.20837C31.1663 12.7292 28.3122 15.5834 24.7913 15.5834H20.2378C20.0263 15.5834 19.9206 15.5834 19.8316 15.5734C19.0928 15.4901 18.5096 14.907 18.4264 14.1681C18.4163 14.0791 18.4163 13.9734 18.4163 13.7619V9.20837Z" fill="#CE7D63"/>
</svg>
