<svg width="34" height="34" viewBox="0 0 34 34" fill="none" xmlns="http://www.w3.org/2000/svg">
<path fill-rule="evenodd" clip-rule="evenodd" d="M31.1663 17C31.1663 24.8241 24.8237 31.1667 16.9997 31.1667C9.17564 31.1667 2.83301 24.8241 2.83301 17C2.83301 9.17601 9.17564 2.83337 16.9997 2.83337C24.8237 2.83337 31.1663 9.17601 31.1663 17ZM19.1078 9.13174C19.6746 9.28362 20.0109 9.86623 19.8591 10.433L16.1925 24.117C16.0406 24.6838 15.458 25.0202 14.8912 24.8683C14.3244 24.7164 13.988 24.1338 14.1399 23.567L17.8065 9.88304C17.9583 9.31624 18.541 8.97987 19.1078 9.13174ZM21.2067 11.9987C21.6216 11.5838 22.2944 11.5838 22.7093 11.9987L23.0045 12.2939C23.9045 13.1939 24.6551 13.9444 25.1708 14.6203C25.7151 15.3337 26.0969 16.0875 26.0969 17C26.0969 17.9126 25.7151 18.6663 25.1708 19.3798C24.6551 20.0557 23.9046 20.8062 23.0045 21.7062L22.7093 22.0013C22.2944 22.4163 21.6216 22.4163 21.2067 22.0013C20.7918 21.5864 20.7918 20.9137 21.2067 20.4987L21.4498 20.2557C22.4155 19.29 23.0625 18.6397 23.4814 18.0908C23.8815 17.5664 23.9719 17.2611 23.9719 17C23.9719 16.739 23.8815 16.4337 23.4814 15.9093C23.0625 15.3604 22.4155 14.7101 21.4498 13.7444L21.2067 13.5013C20.7918 13.0864 20.7918 12.4137 21.2067 11.9987ZM11.2903 11.9987C11.7052 11.5838 12.378 11.5838 12.7929 11.9987C13.2078 12.4137 13.2078 13.0864 12.7929 13.5013L12.5498 13.7444C11.5842 14.7101 10.9371 15.3604 10.5183 15.9093C10.1181 16.4337 10.0277 16.739 10.0277 17C10.0277 17.2611 10.1181 17.5664 10.5183 18.0908C10.9371 18.6397 11.5842 19.29 12.5498 20.2557L12.7929 20.4987C13.2078 20.9137 13.2078 21.5864 12.7929 22.0013C12.378 22.4163 11.7052 22.4163 11.2903 22.0013L10.9951 21.7062C10.0951 20.8062 9.34454 20.0557 8.82883 19.3798C8.2845 18.6663 7.90271 17.9126 7.90271 17C7.90271 16.0875 8.2845 15.3337 8.82883 14.6203C9.34454 13.9444 10.0951 13.1939 10.9952 12.2939L11.2903 11.9987Z" fill="#CE7D63"/>
</svg>
