<svg width="32" height="32" viewBox="0 0 32 32" fill="none" xmlns="http://www.w3.org/2000/svg">
<path d="M15.6003 1.03613C23.6449 1.03613 30.1537 7.54494 30.1537 15.5773C30.1537 23.6097 23.6449 30.1307 15.6003 30.1307C7.55568 30.1307 1.04688 23.6219 1.04688 15.5895C1.04688 7.55713 7.55568 1.03613 15.6003 1.03613Z" fill="#E7BEB1"/>
<path d="M15.6016 31.1667C6.99636 31.1667 0 24.1825 0 15.5894C0 6.98417 6.99636 0 15.6016 0C24.2069 0 31.2033 6.98417 31.2033 15.5773C31.2033 24.1703 24.2069 31.1667 15.6016 31.1667ZM28.7533 17.7103C28.3023 17.564 24.6335 16.4792 20.4528 17.1374C22.1958 21.9154 22.9027 25.8158 23.0368 26.6203C26.0352 24.6091 28.1683 21.4157 28.7533 17.7103ZM20.8062 27.8513C20.6112 26.6812 19.8311 22.6102 17.9663 17.759C17.9419 17.7712 17.9053 17.7834 17.8809 17.7834C10.3605 20.404 7.66674 25.6086 7.42296 26.0962C9.67789 27.8514 12.5179 28.8996 15.6016 28.8996C17.4421 28.9118 19.2095 28.5339 20.8062 27.8513ZM5.70435 24.4994C6.00907 23.9875 9.6657 17.9419 16.5402 15.7113C16.7108 15.6504 16.8936 15.6016 17.0643 15.5529C16.7352 14.7972 16.3695 14.0415 15.9795 13.298C9.32441 15.2847 2.86436 15.1994 2.2793 15.1872C2.2793 15.3213 2.26711 15.4554 2.26711 15.5894C2.2793 19.0145 3.57131 22.1348 5.70435 24.4994ZM2.55964 12.8713C3.15689 12.8835 8.64184 12.9079 14.8825 11.2502C12.6763 7.32545 10.2873 4.03448 9.94604 3.55912C6.20409 5.31431 3.42505 8.75154 2.55964 12.8713ZM12.4813 2.65715C12.847 3.1447 15.2725 6.43567 17.4543 10.4458C22.1958 8.66622 24.1947 5.98469 24.4385 5.6434C22.0861 3.55912 18.9901 2.29149 15.6016 2.29149C14.529 2.29149 13.4808 2.42557 12.4813 2.65715ZM25.9133 7.17919C25.633 7.55704 23.4024 10.4214 18.4782 12.4325C18.7829 13.0664 19.0876 13.7124 19.368 14.3584C19.4655 14.59 19.563 14.8215 19.6605 15.0409C24.0972 14.4803 28.4974 15.3822 28.9361 15.4676C28.8996 12.335 27.7782 9.4463 25.9133 7.17919Z" fill="#CE7D63"/>
</svg>
