<svg width="34" height="34" viewBox="0 0 34 34" fill="none" xmlns="http://www.w3.org/2000/svg">
<path d="M5.73062 7.77978L7.77954 5.73086C9.71128 3.79912 10.6771 2.83325 11.8774 2.83325C13.0776 2.83325 14.0435 3.79912 15.9752 5.73086L12.5604 9.14573L5.73062 15.9755L5.7306 15.9754C3.79887 14.0437 2.83301 13.0778 2.83301 11.8776C2.83301 10.6774 3.79888 9.71152 5.73062 7.77978L5.73062 7.77978Z" fill="#CE7D63"/>
<path d="M28.2687 26.2201L26.2198 28.269C24.2881 30.2007 23.3222 31.1666 22.122 31.1666C20.9218 31.1666 19.9559 30.2007 18.0242 28.269L18.0241 28.269L24.8539 21.4392L28.2687 18.0244C30.2005 19.9561 31.1663 20.922 31.1663 22.1222C31.1663 23.3224 30.2005 24.2883 28.2687 26.2201Z" fill="#CE7D63"/>
<path d="M16.1498 25.7283L16.1498 25.7282L26.6273 15.2508C25.2013 14.6573 23.5123 13.6824 21.915 12.085C20.3174 10.4875 19.3425 8.79824 18.749 7.37211L8.27134 17.8498L8.27129 17.8498C7.45369 18.6674 7.04486 19.0763 6.69328 19.527C6.27853 20.0588 5.92295 20.6341 5.63282 21.2429C5.38688 21.7589 5.20405 22.3074 4.83839 23.4044L2.91014 29.1891C2.7302 29.729 2.8707 30.3242 3.27307 30.7265C3.67544 31.1289 4.27061 31.2694 4.81045 31.0894L10.5952 29.1612C11.6922 28.7955 12.2407 28.6127 12.7567 28.3668C13.3655 28.0766 13.9408 27.7211 14.4726 27.3063C14.9233 26.9547 15.3322 26.5459 16.1498 25.7283Z" fill="#CE7D63"/>
<path d="M29.5347 12.3434C31.7102 10.1678 31.7102 6.64052 29.5347 4.46494C27.3591 2.28936 23.8318 2.28936 21.6562 4.46494L20.3995 5.72158C20.4167 5.77354 20.4346 5.82622 20.4531 5.87959C20.9137 7.2072 21.7828 8.94759 23.4176 10.5824C25.0525 12.2173 26.7929 13.0864 28.1205 13.547C28.1736 13.5654 28.226 13.5832 28.2778 13.6003L29.5347 12.3434Z" fill="#CE7D63"/>
</svg>
