<svg width="34" height="34" viewBox="0 0 34 34" fill="none" xmlns="http://www.w3.org/2000/svg">
<path fill-rule="evenodd" clip-rule="evenodd" d="M7.32672 4.49298C5.66699 6.15271 5.66699 8.824 5.66699 14.1666V19.8333C5.66699 25.1758 5.66699 27.8471 7.32672 29.5069C8.98645 31.1666 11.6577 31.1666 17.0003 31.1666C22.3429 31.1666 25.0142 31.1666 26.6739 29.5069C28.3337 27.8471 28.3337 25.1758 28.3337 19.8333V14.1666C28.3337 8.824 28.3337 6.15271 26.6739 4.49298C25.0142 2.83325 22.3429 2.83325 17.0003 2.83325C11.6577 2.83325 8.98645 2.83325 7.32672 4.49298ZM12.7503 6.02075C12.1635 6.02075 11.6878 6.49645 11.6878 7.08325C11.6878 7.67005 12.1635 8.14575 12.7503 8.14575H21.2503C21.8371 8.14575 22.3128 7.67005 22.3128 7.08325C22.3128 6.49645 21.8371 6.02075 21.2503 6.02075H12.7503ZM17.0003 26.9166C18.5651 26.9166 19.8337 25.6481 19.8337 24.0833C19.8337 22.5184 18.5651 21.2499 17.0003 21.2499C15.4355 21.2499 14.167 22.5184 14.167 24.0833C14.167 25.6481 15.4355 26.9166 17.0003 26.9166Z" fill="#CE7D63"/>
</svg>
